<?xml version="1.0" encoding="UTF-8" standalone="no"?>
<!-- Created with Inkscape (http://www.inkscape.org/) -->

<svg
   width="400"
   height="400"
   viewBox="0 0 141.1111 141.1111"
   version="1.1"
   id="svg5"
   inkscape:version="1.1.2 (0a00cf5339, 2022-02-04)"
   sodipodi:docname="kson_logo_transparent.svg"
   xmlns:inkscape="http://www.inkscape.org/namespaces/inkscape"
   xmlns:sodipodi="http://sodipodi.sourceforge.net/DTD/sodipodi-0.dtd"
   xmlns="http://www.w3.org/2000/svg"
   xmlns:svg="http://www.w3.org/2000/svg">
  <sodipodi:namedview
     id="namedview7"
     pagecolor="#ffffff"
     bordercolor="#666666"
     borderopacity="1.0"
     inkscape:pageshadow="2"
     inkscape:pageopacity="0.0"
     inkscape:pagecheckerboard="0"
     inkscape:document-units="mm"
     showgrid="false"
     inkscape:zoom="1.5554293"
     inkscape:cx="97.722217"
     inkscape:cy="194.48007"
     inkscape:window-width="1850"
     inkscape:window-height="1016"
     inkscape:window-x="0"
     inkscape:window-y="0"
     inkscape:window-maximized="1"
     inkscape:current-layer="layer1" />
  <defs
     id="defs2" />
  <g
     inkscape:label="Layer 1"
     inkscape:groupmode="layer"
     id="layer1">
    <rect width="100%" height="100%" fill="#90bcfe"/>
    <path
       style="fill:#000000;fill-opacity:1;stroke:#000000;stroke-width:0.152778"
       d="m 98.248605,118.66409 c -8.016991,-0.82116 -16.205445,-7.19656 -16.079403,-15.79547 -0.80481,-6.498677 0.489231,-13.427657 -2.156966,-19.587777 -2.945316,-6.68552 -12.051649,-6.5715 -17.923351,-6.80573 l -0.09619,-11.8947 c 5.990689,-0.48627 13.432862,0.0716 17.280742,-5.42065 4.549667,-7.812102 0.961341,-17.324704 3.755144,-25.588417 2.677718,-7.596028 9.733985,-10.819234 18.860829,-11.160436 4.60697,-0.08689 9.21446,-0.143164 13.82169,-0.21478 v 10.899171 c -4.99494,0.421356 -10.58263,-0.520002 -14.89171,2.517522 -4.16823,4.040911 -2.687655,10.300361 -3.286825,15.499056 0.17594,5.985154 -2.715904,11.849004 -7.806284,15.095814 -0.903392,1.04009 -3.523007,2.02579 -5.175934,2.99719 -2.787488,1.63816 -2.577986,1.06559 0.652269,2.95897 6.405569,2.92416 12.239929,8.77721 12.221339,16.24504 0.78786,5.31899 -0.588179,11.27002 2.40138,16.028197 3.261155,3.90546 8.926455,3.10534 13.514175,3.53842 l 2.37159,0.11321 -1e-4,10.75471 c -5.82065,-0.0657 -11.64677,0.0835 -17.462395,-0.17934 z"
       id="brace"
       sodipodi:nodetypes="cccccccccccccsccccccc" />
    <path
       style="fill:#000000;fill-opacity:1;stroke:#000000;stroke-width:0.152778;stroke-opacity:1"
       d="m 25.4,112.91895 v -5.99722 H 41.274999 V 33.896724 H 25.4 V 22.255058 H 56.79722 V 118.91617 H 25.4 Z"
       id="leftBracket"
       sodipodi:nodetypes="cccccccccc" />
  </g>
</svg>
